<svg width="20" height="20" viewBox="0 0 20 20" fill="none" xmlns="http://www.w3.org/2000/svg">
<path d="M11.2513 16.2503V9.58366C11.2513 8.79799 11.2513 8.40516 11.0072 8.16107C10.7631 7.91699 10.3703 7.91699 9.58464 7.91699C8.79897 7.91699 8.40614 7.91699 8.16204 8.16107C7.91797 8.40516 7.91797 8.79799 7.91797 9.58366V16.2503C7.91797 17.036 7.91797 17.4288 8.16204 17.6729C8.40614 17.917 8.79897 17.917 9.58464 17.917C10.3703 17.917 10.7631 17.917 11.0072 17.6729C11.2513 17.4288 11.2513 17.036 11.2513 16.2503Z" fill="black"/>
<path d="M16.0833 5.41699C16.6356 5.41699 17.0833 5.86471 17.0833 6.41699V16.2503C17.0833 17.036 17.0833 17.4288 16.8392 17.6729C16.5952 17.917 16.2023 17.917 15.4167 17.917C14.631 17.917 14.2382 17.917 13.9941 17.6729C13.75 17.4288 13.75 17.036 13.75 16.2503V6.41699" fill="black"/>
<path d="M5.41536 16.2503V12.0837C5.41536 11.298 5.41536 10.9052 5.17129 10.6611C4.92721 10.417 4.53437 10.417 3.7487 10.417C2.96302 10.417 2.57019 10.417 2.32611 10.6611C2.08203 10.9052 2.08203 11.298 2.08203 12.0837V16.2503C2.08203 17.036 2.08203 17.4288 2.32611 17.6729C2.57019 17.917 2.96302 17.917 3.7487 17.917C4.53437 17.917 4.92721 17.917 5.17129 17.6729C5.41536 17.4288 5.41536 17.036 5.41536 16.2503Z" fill="black"/>
</svg>
