<svg preserveAspectRatio="none" overflow="visible" style="display: block;" width="85.7009" height="15.2474" viewBox="0 0 85.7009 15.2474" fill="none" xmlns="http://www.w3.org/2000/svg">
<g id="Status/Pro">
<g id="Cellular">
<path d="M18.6005 1.02348C17.9962 1.02348 17.5064 1.51335 17.5064 2.11763V13.4238C17.5064 14.0281 17.9962 14.518 18.6005 14.518H20.0594C20.6637 14.518 21.1535 14.0281 21.1535 13.4238V2.11763C21.1535 1.51335 20.6637 1.02348 20.0594 1.02348H18.6005Z" fill="white"/>
<path d="M11.6709 5.03536C11.6709 4.43108 12.1608 3.94121 12.7651 3.94121H14.2239C14.8282 3.94121 15.3181 4.43107 15.3181 5.03536V13.4238C15.3181 14.0281 14.8282 14.518 14.2239 14.518H12.7651C12.1608 14.518 11.6709 14.0281 11.6709 13.4238V5.03536Z" fill="white"/>
<path d="M6.9296 6.85893C6.32532 6.85893 5.83545 7.3488 5.83545 7.95308V13.4238C5.83545 14.0281 6.32532 14.518 6.9296 14.518H8.38846C8.99275 14.518 9.48261 14.0281 9.48261 13.4238V7.95308C9.48261 7.3488 8.99275 6.85893 8.38847 6.85893H6.9296Z" fill="white"/>
<path d="M1.09415 9.41195C0.489867 9.41195 0 9.90181 0 10.5061V13.4238C0 14.0281 0.489866 14.518 1.09415 14.518H2.55301C3.15729 14.518 3.64716 14.0281 3.64716 13.4238V10.5061C3.64716 9.90181 3.15729 9.41195 2.55301 9.41195H1.09415Z" fill="white"/>
</g>
<path id="Wifi" fill-rule="evenodd" clip-rule="evenodd" d="M38.4744 3.82608C41.1732 3.8262 43.7687 4.87401 45.7247 6.75295C45.8719 6.89801 46.1074 6.89618 46.2524 6.74884L47.6603 5.3131C47.7338 5.23837 47.7747 5.13715 47.7741 5.03183C47.7735 4.92651 47.7314 4.82578 47.6571 4.75193C42.5234 -0.219291 34.4245 -0.219291 29.2909 4.75193C29.2165 4.82573 29.1743 4.92643 29.1736 5.03175C29.1729 5.13707 29.2138 5.23832 29.2872 5.3131L30.6955 6.74884C30.8405 6.8964 31.0761 6.89823 31.2233 6.75295C33.1795 4.87389 35.7753 3.82607 38.4744 3.82608ZM38.4744 8.49708C39.9572 8.49699 41.3871 9.0539 42.4862 10.0596C42.6349 10.2023 42.8691 10.1992 43.014 10.0526L44.4203 8.61687C44.4943 8.54156 44.5354 8.43939 44.5344 8.33323C44.5333 8.22707 44.4902 8.12578 44.4146 8.052C41.0675 4.90602 35.8841 4.90602 32.5371 8.052C32.4615 8.12577 32.4183 8.22712 32.4173 8.33332C32.4163 8.43951 32.4576 8.54167 32.5318 8.61687L33.9377 10.0526C34.0826 10.1992 34.3168 10.2023 34.4654 10.0596C35.5638 9.05456 36.9926 8.4977 38.4744 8.49708ZM41.2914 11.6398C41.2936 11.7462 41.2522 11.8489 41.1769 11.9234L38.7444 14.404C38.673 14.4769 38.5758 14.5179 38.4744 14.5179C38.3729 14.5179 38.2757 14.4769 38.2044 14.404L35.7714 11.9234C35.6963 11.8488 35.6549 11.7461 35.6571 11.6397C35.6594 11.5332 35.705 11.4324 35.7832 11.361C37.3367 10.0333 39.612 10.0333 41.1656 11.361C41.2437 11.4325 41.2893 11.5333 41.2914 11.6398Z" fill="white"/>
<g id="Battery/Percentage">
<rect id="percent" x="57.9825" y="2.18812" width="11.3062" height="9.84733" rx="2.91773" fill="white"/>
<g id="battery">
<path fill-rule="evenodd" clip-rule="evenodd" d="M76.0565 0H62.8857C61.8835 0 61.1032 0 60.4743 0.0429125C59.8361 0.0864565 59.3136 0.176004 58.8337 0.374792C57.6273 0.874514 56.6687 1.83302 56.169 3.03946C55.9702 3.51938 55.8807 4.04184 55.8371 4.68004C55.7942 5.30899 55.7942 6.08905 55.7942 7.09117V7.1325C55.7942 8.13462 55.7942 8.91493 55.8371 9.54387C55.8807 10.1821 55.9702 10.7045 56.169 11.1845C56.6687 12.3909 57.6273 13.3494 58.8337 13.8491C59.3136 14.0479 59.8361 14.1375 60.4743 14.181C61.1033 14.2239 61.8834 14.2239 62.8856 14.2239H76.0565C77.0587 14.2239 77.8389 14.2239 78.4679 14.181C79.1061 14.1375 79.6285 14.0479 80.1085 13.8491C81.3149 13.3494 82.2734 12.3909 82.7731 11.1845C82.9719 10.7045 83.0615 10.1821 83.105 9.54387C83.1479 8.91489 83.1479 8.13476 83.1479 7.13253V7.09142C83.1479 6.08919 83.1479 5.30903 83.105 4.68004C83.0615 4.04184 82.9719 3.51938 82.7731 3.03946C82.2734 1.83302 81.3149 0.874514 80.1085 0.374792C79.6285 0.176004 79.1061 0.0864565 78.4679 0.0429125C77.8389 0 77.0586 0 76.0565 0ZM59.2524 1.38565C59.5768 1.25129 59.9663 1.17427 60.5488 1.13452C61.1362 1.09444 61.8791 1.09415 62.9062 1.09415H76.036C77.0631 1.09415 77.806 1.09444 78.3934 1.13452C78.9759 1.17427 79.3654 1.25129 79.6897 1.38565C80.6281 1.77432 81.3736 2.51983 81.7623 3.45817C81.8966 3.78255 81.9737 4.17203 82.0134 4.75452C82.0535 5.34193 82.0538 6.08486 82.0538 7.11196C82.0538 8.13906 82.0535 8.88199 82.0134 9.46939C81.9737 10.0519 81.8966 10.4414 81.7623 10.7657C81.3736 11.7041 80.6281 12.4496 79.6897 12.8383C79.3654 12.9726 78.9759 13.0497 78.3934 13.0894C77.806 13.1295 77.0631 13.1298 76.036 13.1298H62.9062C61.8791 13.1298 61.1362 13.1295 60.5488 13.0894C59.9663 13.0497 59.5768 12.9726 59.2524 12.8383C58.3141 12.4496 57.5686 11.7041 57.1799 10.7657C57.0455 10.4414 56.9685 10.0519 56.9288 9.46939C56.8887 8.88199 56.8884 8.13906 56.8884 7.11196C56.8884 6.08486 56.8887 5.34193 56.9288 4.75452C56.9685 4.17203 57.0455 3.78255 57.1799 3.45817C57.5686 2.51983 58.3141 1.77432 59.2524 1.38565Z" fill="white" fill-opacity="0.4"/>
<path d="M84.2421 4.92286C85.0988 5.28012 85.7009 6.12565 85.7009 7.11183C85.7009 8.098 85.0988 8.94353 84.2421 9.30079V4.92286Z" fill="white" fill-opacity="0.4"/>
</g>
</g>
</g>
</svg>
