<svg width="52" height="52" viewBox="0 0 52 52" fill="none" xmlns="http://www.w3.org/2000/svg">
<rect width="52" height="52" rx="26" fill="#FEC60D"/>
<path d="M38.6063 18.6508L34.5421 16.3061C34.4027 16.2232 34.2738 16.1509 34.1355 16.0715C34.0007 15.9945 33.8695 15.9116 33.7324 15.8322C32.9179 15.3654 32.101 14.9128 31.296 14.4294L27.4351 12.1949C27.2105 12.0586 26.0496 11.375 26 11.375C25.9799 11.375 25.8333 11.4698 25.8014 11.4899L20.5267 14.5348C20.4499 14.5787 20.3967 14.613 20.3186 14.6557C20.2515 14.6928 20.1853 14.7315 20.12 14.7718L19.7157 15.0087L19.5077 15.1308L19.1105 15.3606C18.971 15.4436 18.8398 15.5147 18.7026 15.594L17.8858 16.062C17.8149 16.0988 17.7558 16.1378 17.6872 16.1769L16.6658 16.7693C16.524 16.8523 16.3927 16.921 16.2544 17.0004L15.447 17.4778C15.0416 17.7101 14.6349 17.9577 14.2235 18.1816C14.0426 18.2788 13.0934 18.8593 13 18.8842V33.9476C13.0757 33.9547 14.1136 34.5743 14.2212 34.6383L15.8478 35.5814C15.9837 35.6643 16.1197 35.739 16.2544 35.8172L17.0583 36.2816C17.1269 36.3172 17.1883 36.3574 17.2593 36.3965C17.3373 36.4392 17.3881 36.4759 17.4673 36.515C17.6742 36.6217 17.8728 36.7484 18.0702 36.8681L19.0939 37.4593C19.1649 37.4984 19.2216 37.5328 19.2914 37.5742C19.6909 37.8159 20.1058 38.0327 20.5042 38.2733L21.9311 39.1026C22.8732 39.6606 23.8343 40.1808 24.7718 40.7447L25.8865 41.3916C26.0638 41.5113 26.1289 41.3762 26.4078 41.2234L28.8501 39.8111C28.9849 39.7329 29.1161 39.6571 29.258 39.5777L29.6564 39.349C29.7237 39.3123 29.7864 39.2732 29.8538 39.2317L32.0939 37.932C32.763 37.5304 33.4534 37.1667 34.1225 36.7638L38.5827 34.1739C38.6473 34.1344 38.7135 34.0957 38.7813 34.0578C38.8522 34.0199 38.9196 33.9665 39 33.9488V18.8842C38.8735 18.7989 38.7423 18.7337 38.6063 18.6508ZM30.5796 33.3943H26.779V34.3919C26.779 34.4029 26.7735 34.4081 26.7625 34.4073H24.9302V33.3943H21.4204V30.5745C21.4204 30.5449 21.4559 30.52 21.4736 30.5034L21.8294 30.1184L21.859 30.0875L21.8862 30.0556L22.093 29.8352L22.0954 29.8316L22.1569 29.7688L22.184 29.7357L22.2503 29.6658L22.2573 29.6575L22.4784 29.4181C22.5257 29.3696 22.573 29.3234 22.6179 29.27L22.6203 29.2677L22.6274 29.2582L22.7763 29.0994C22.7976 29.0757 22.8141 29.0627 22.8342 29.0366L23.0139 28.8447L23.0435 28.8151L23.0707 28.7819L23.3721 28.4597L23.3745 28.4573L23.3816 28.449L23.4277 28.4016C23.4868 28.3258 23.5932 28.231 23.6558 28.1552L23.6629 28.1457C23.683 28.122 23.7055 28.1054 23.7244 28.0829L23.8414 27.9561C23.9242 27.8732 23.9951 27.7831 24.0778 27.7002L24.3438 27.4135L24.3734 27.3839L24.4892 27.2559C24.5117 27.2334 24.533 27.2168 24.5507 27.1931C24.5684 27.1694 24.5909 27.1528 24.611 27.1291L24.728 27.0024C24.739 26.9921 24.7497 26.981 24.7599 26.9692L24.8486 26.8732C24.8663 26.8495 24.8888 26.8329 24.9089 26.8092C24.9609 26.7512 25.1098 26.5983 25.1418 26.5557C25.1607 26.532 25.1831 26.5178 25.1997 26.4941C25.1522 26.4373 25.1021 26.3827 25.0496 26.3306L24.9337 26.2026L24.903 26.173C24.8912 26.1588 24.8876 26.1517 24.8734 26.1375C24.7824 26.045 24.6985 25.9467 24.6063 25.8531L24.4585 25.6932L24.4301 25.6612L23.0707 24.1992L23.0411 24.1636L22.8401 23.9468L22.8378 23.9444L22.3921 23.4634L22.3626 23.4338L22.2443 23.3035C22.164 23.2205 22.0871 23.1305 22.0055 23.0487L21.9795 23.0203L21.9772 23.0179L21.8897 22.9219L21.7679 22.794C21.7549 22.7798 21.7526 22.7727 21.7384 22.7584C21.658 22.6767 21.5847 22.5878 21.502 22.5073L21.4736 22.4777C21.4629 22.4658 21.4204 22.4243 21.4204 22.4113V19.5808H24.929V18.4055C25.5461 18.4055 26.156 18.4174 26.7731 18.4174V19.5429C26.7723 19.5556 26.7778 19.5615 26.7897 19.5607H30.5796V22.4172H25.351C25.3817 22.4646 25.429 22.5037 25.4657 22.5464L25.7565 22.8663C25.7742 22.89 25.7931 22.9065 25.8132 22.9302C25.8629 22.9895 25.9184 23.0404 25.9669 23.0997L26.3901 23.5653C26.4729 23.6459 26.5438 23.7371 26.623 23.82L27.7023 25.0084L27.7094 25.0178L28.0959 25.4444L28.1255 25.4728C28.1775 25.5249 28.2201 25.5842 28.2721 25.6363L28.9672 26.3981C28.9971 26.4273 29.0247 26.4589 29.0499 26.4929C29.0393 26.5095 29.031 26.5142 29.018 26.5284L28.9908 26.5604L28.8454 26.718L28.8182 26.75L28.4695 27.1327C28.4458 27.1552 28.434 27.1742 28.4104 27.1967C28.3631 27.2441 28.2922 27.3329 28.2366 27.3862L27.9931 27.6575C27.9446 27.7156 27.8146 27.8447 27.7756 27.8945L27.4292 28.2736C27.3547 28.3649 27.2708 28.4431 27.1951 28.5331L27.0533 28.6871C26.9824 28.7594 26.9209 28.8364 26.8523 28.9099C26.8413 28.9201 26.8307 28.9312 26.8204 28.943C26.74 29.0343 26.6525 29.1208 26.5733 29.2155L26.5615 29.2298L26.2577 29.5603L26.2506 29.5686L26.24 29.5805L26.2376 29.584L26.0981 29.738L26.0709 29.7688L26.0414 29.7996C25.9811 29.8589 25.9291 29.93 25.8688 29.9892L25.8416 30.0212L25.7257 30.1492L25.6962 30.1788L25.351 30.5603H30.4342C30.4827 30.5603 30.5796 30.5484 30.5796 30.5757V33.3943Z" fill="white"/>
</svg>
