<svg preserveAspectRatio="none" overflow="visible" style="display: block;" width="32" height="32" viewBox="0 0 32 32" fill="none" xmlns="http://www.w3.org/2000/svg">
<g id="camera-rotated-01">
<path id="Vector" d="M20.6829 22.858L17.8303 23.0312L18.703 22.0618C19.4291 21.3898 19.9485 20.4873 20.1328 19.442C20.5849 16.8783 18.85 14.4293 16.2579 13.9723C13.6658 13.5152 11.198 15.2231 10.7459 17.7869C10.3499 20.0328 11.632 22.1905 13.6985 22.9984" stroke="#77747D" stroke-width="1.5" stroke-linecap="round" stroke-linejoin="round"/>
<path id="Vector_2" d="M9.33353 8.00065C7.70601 8.00553 6.80531 8.04447 6.06517 8.35512C5.02847 8.79025 4.18421 9.59403 3.69101 10.6154C3.28844 11.4492 3.22257 12.5173 3.09081 14.6536L2.88436 18.0012C2.55672 23.3137 2.39289 25.97 3.95179 27.6517C5.51067 29.3333 8.13691 29.3333 13.3893 29.3333H18.6111C23.8635 29.3333 26.4897 29.3333 28.0487 27.6517C29.6075 25.97 29.4437 23.3137 29.116 18.0012L28.9096 14.6536C28.7779 12.5173 28.712 11.4492 28.3093 10.6154C27.8161 9.59403 26.972 8.79025 25.9352 8.35512C25.1951 8.04447 24.2944 8.00553 22.6669 8.00065" stroke="#77747D" stroke-width="1.5" stroke-linecap="round"/>
<path id="Vector_3" d="M22.6669 9.33333L21.4857 6.38057C20.9761 5.10661 20.5327 3.66147 19.2224 3.01273C18.5235 2.66667 17.6824 2.66667 16.0003 2.66667C14.3181 2.66667 13.4771 2.66667 12.778 3.01273C11.4677 3.66147 11.0242 5.10661 10.5146 6.38057L9.33353 9.33333" stroke="#77747D" stroke-width="1.5" stroke-linecap="round" stroke-linejoin="round"/>
<path id="Vector_4" d="M16 8H16.0119" stroke="#77747D" stroke-width="2" stroke-linecap="round" stroke-linejoin="round"/>
</g>
</svg>
